# xmcd
#
# Track frame offsets:
#	150
#	28032
#	46522
#	62142
#	91762
#	110960
#	129877
#	156150
#	176042
#
# Disc length: 2721 seconds
#
# Revision: 0
# Processed by: cddbd v1.5.1PL0 Copyright (c) Steve Scherf et al.
# Submitted via: audiograbber 1.83.01
#
DISCID=6e0a9f09
DTITLE=Gary Moore - Victims Of The Future
DYEAR=1984
DGENRE=Rock
TTITLE0=Victims Of The Future
TTITLE1=Teenage Idol
TTITLE2=Devil In Her Heart
TTITLE3=Empty Rooms
TTITLE4=All I Want
TTITLE5=Shapes Of Things
TTITLE6=Murder In The Skies
TTITLE7=Hold On To Love
TTITLE8=The Law Of The Jungle
EXTD=
EXTT0=
EXTT1=
EXTT2=
EXTT3=
EXTT4=
EXTT5=
EXTT6=
EXTT7=
EXTT8=
PLAYORDER=
